<?xml version="1.0" encoding="utf-8"?>
<!-- Generator: Adobe Illustrator 21.0.0, SVG Export Plug-In . SVG Version: 6.00 Build 0)  -->
<svg version="1.1" id="Layer_1" xmlns="http://www.w3.org/2000/svg" xmlns:xlink="http://www.w3.org/1999/xlink" x="0px" y="0px"
	 viewBox="0 0 1696.7 700" style="enable-background:new 0 0 1696.7 700;" xml:space="preserve">
<style type="text/css">
	.st0{display:none;fill:#AE2F2F;}
	.st1{display:none;}
	.st2{display:inline;fill:#FFFFFF;}
	.st3{display:inline;}
	.st4{fill:#FFFFFF;}
	.st5{font-family:'LeelawadeeUI-Semilight';}
	.st6{font-size:150px;}
	.st7{fill:#FFFFFF;stroke:#000000;stroke-width:10;stroke-linecap:round;stroke-linejoin:round;stroke-miterlimit:10;}
</style>
<rect x="-14.2" class="st0" width="1570.2" height="700"/>
<g class="st1">
	<path class="st2" d="M546.2,133.3c0,0-1,30.8,5.6,57c13.4,53.4,35,124.2-3,131.6c-35.2,6.8-68.1-37.7-27.4-156.8"/>
	<g class="st3">
		<path d="M540.2,133.3c-0.3,11.3,0.3,22.6,1.5,33.8c1.9,17.1,6.5,33.6,10.7,50.3c3.9,15.4,7.6,30.9,10,46.6
			c1.8,12.2,3.3,25.7-0.3,37.8c-1.2,4-3.1,7.9-6.4,10.6c-1.4,1.1-2.9,2-4.6,2.6c-1.1,0.4-2.3,0.7-3.5,1c-0.3,0.1-2.8,0.5-1.7,0.3
			c-6.3,0.8-11.4-0.2-16-2.7c-5.7-3-9.6-7.4-12.9-13.3c-4.3-7.6-6.5-16.5-7.6-25.3c-4.5-36.4,6.1-74.3,17.7-108.4
			c2.5-7.3-9.1-10.5-11.6-3.2c-11.4,33.6-21.2,70.2-18.6,106c1.4,19.1,6.8,40.4,23.2,52.1c13.2,9.5,34.7,10,46.1-2.7
			c8.2-9.1,9.9-22.3,9.9-34.1c-0.1-16.2-3.2-32.3-6.7-48c-4.3-19.4-10.5-38.5-14-58c-2.7-14.9-3.7-30.3-3.2-45.5
			C552.4,125.6,540.4,125.6,540.2,133.3L540.2,133.3z"/>
	</g>
</g>
<g>
	<path class="st4" d="M535.1,399.9H285.7l-56,72.8l2-72.8h-42.1c-6.6,0-12-5.4-12-12V129.3c0-6.6,5.4-12,12-12h345.6
		c6.6,0,12,5.4,12,12v258.6C547.1,394.5,541.7,399.9,535.1,399.9z"/>
	<path d="M224.3,487.9l2.3-83.1h-37c-9.4,0-17-7.6-17-17V129.3c0-9.4,7.6-17,17-17h345.6c9.4,0,17,7.6,17,17v258.6
		c0,9.4-7.6,17-17,17h-247L224.3,487.9z M189.6,122.3c-3.9,0-7,3.1-7,7v258.6c0,3.9,3.1,7,7,7h47.3l-1.7,62.6l48.1-62.6h251.9
		c3.9,0,7-3.1,7-7V129.3c0-3.9-3.1-7-7-7H189.6z"/>
</g>
<g>
	<path class="st4" d="M179.5,124.7c0,0-5.9,22.7-23.2,53.1C120.4,241,69,337.1,131.7,358.7c69.1,23.8,82.2-57.4,67.2-119.5
		c-8.5-35.1-4.2-70.5-4.2-70.5"/>
	<g>
		<path d="M173.7,123.2c-9,34.3-30.6,64.3-46.5,95.6c-9.1,17.9-17.6,36.4-23.7,55.6c-5,15.8-8.9,32.9-6.8,49.5
			c1.9,15.1,9.6,28.4,23,36c14,7.9,32.8,11.6,48.5,7.2c31.3-8.7,40.7-45.3,42-73.8c0.5-10.1,0.1-20.2-1.1-30.2
			c-1.3-11.3-4-22.1-6.1-33.2c-3.8-19.9-4.7-41.1-2.3-61.3c0.9-7.7-11.1-7.6-12,0c-1.8,15.2-1.5,30.9,0.1,46
			c2.1,20,8.1,39.2,9.3,59.4c0.9,15.8,0.2,31.9-4.2,47.1c-3.4,11.8-9.5,24.1-20.4,30.7c-12.6,7.6-28.2,5.5-41.3,0.6
			c-12.5-4.7-20.7-14.3-23.2-27.4c-2.7-14.5,0.8-30.1,5-43.9c5.4-18.2,13.3-35.6,21.7-52.6c16.7-33.6,39.9-65.6,49.6-102.3
			C187.3,118.9,175.7,115.7,173.7,123.2L173.7,123.2z"/>
	</g>
</g>
<ellipse cx="369.5" cy="199.2" rx="7.2" ry="14.5"/>
<ellipse cx="419.5" cy="199.2" rx="7.2" ry="14.5"/>
<path d="M412.3,228.7c0,0,15.5,9.4,38.3,15c13,3.2-4.5,45.7-16.6,40.1c-11.8-5.4-29.9-35.7-7.4-41.1"/>
<path d="M389.5,289.4c0,0,34,20,71.5,13c0,0-40,9.7-31.5,36.2c4,12.5,16.5,8.6,21.7,11.4c5.2,2.9,4,10.1-5.3,16.1
	c-8.8,5.5-38.1,24.8-58.4-11.5C364.7,314,389.5,289.4,389.5,289.4z"/>
<path d="M192.7,122.3c0,0-5.8,0.3-8.9,9.6l-3.7-7.1C180,124.7,185.8,116.5,192.7,122.3z"/>
<path d="M222.2,501.1c23.1,8.5,37.5-3.2,24.5-12.2c-21.8-15.1,8.6-11.1,23.1,8.6c9.8,13.3-2.9,53.1-61,32.3
	c-51.2-18.3-41.1-59.8-16.6-61.1c24.4-1.3,30.7,8.5,16.2,5.8C193.6,471.9,194.4,490.8,222.2,501.1z"/>
<text transform="matrix(1 0 0 1 309.6956 528.6957)" class="st1 st5 st6">bark</text>
<path class="st7" d="M684.8,118.2v66.1c13.5-5.8,27-8.6,40.5-8.6c29.5,0,53.9,10.4,73.5,31.3c19.5,20.9,29.3,47.1,29.3,78.8
	c0,31.9-10.2,58.8-30.7,80.6C777,388.1,748.2,399,711.1,399H577.7V118.2H684.8z M684.8,318.4h2.4c9,0,16-0.5,21.1-1.6
	c5-1,9.1-3.6,12.3-7.7c3.2-4.1,4.8-10.6,4.8-19.4c0-8.2-2.1-14.7-6.2-19.5c-4.2-4.8-9.8-7.2-17-7.2c-5.7,0-11.4,1.7-17.3,5.2V318.4z
	"/>
<path class="st7" d="M838,268.5v-66.6c30.3-17.5,64.6-26.3,102.9-26.3c36.5,0,63.4,8.3,80.7,24.8c17.3,16.6,26,41.9,26,76V399H940.5
	v-16.6c-15.8,12.3-33.2,18.4-52.2,18.4c-15.9,0-29.2-5.5-39.9-16.5c-10.6-11-15.9-24.8-15.9-41.5c0-19,6.6-34.5,19.8-46.5
	c13.2-12,30.4-17.9,51.6-17.9c12.5,0,24.7,1.7,36.6,5.2c0-10.3-3.7-18.3-11.2-24.1c-7.5-5.8-17.8-8.6-31.1-8.6
	C878.6,250.9,858.5,256.8,838,268.5z M940.5,350.1v-30.9c-6.5-2.3-12.3-3.5-17.5-3.5c-6.5,0-11.7,1.8-15.6,5.3
	c-3.9,3.6-5.9,8.2-5.9,14c0,6,2.1,11,6.3,15.1c4.2,4,9.6,6.1,16,6.1C930.5,356.1,936,354.1,940.5,350.1z"/>
<path class="st7" d="M1175.4,226c13.6-33.6,33.4-50.4,59.3-50.4c14.4,0,26.3,5,35.7,15.1c9.4,10.1,14,22.8,14,38.3
	c0,16.2-4.6,29.3-13.8,39.3c-9.2,10-21.2,15-36,15c-16.9,0-31.3-6.7-43.3-20.2c-10.6,9.6-15.9,27.4-15.9,53.4V399h-107.1V177.4
	h107.1V226z"/>
<path class="st7" d="M1391.3,118.2v132.7c26.3-10.4,39.9-34.9,40.5-73.4h106c-2,22.7-6.2,41-12.8,55c-6.6,14-17,26.4-31.2,37.4
	c8.3,6.9,15.4,14.6,21.1,23.1c5.8,8.5,10.5,18.2,14.1,29.1c3.6,10.9,6,21.8,7.1,32.8c1.1,11,1.6,25.7,1.6,44.3h-106
	c0-34.1-3.3-59.3-9.8-75.6c-6.5-16.3-16.8-27.4-30.8-33.3v109h-107.1V118.2H1391.3z"/>
</svg>
